<svg width="131" height="34" viewBox="0 0 131 34" fill="none" xmlns="http://www.w3.org/2000/svg">
<path d="M14.3163 0.919355C11.6774 1.1544 9.43385 2.15867 7.95948 3.77192C7.24367 4.56252 6.41034 6.25056 6.18598 7.38304C5.95093 8.57962 5.92957 11.2506 6.14324 11.3895C6.29282 11.4856 6.58128 11.6031 7.79923 12.0305C8.86761 12.4151 11.3356 13.0668 12.7672 13.366C15.7052 13.9536 18.8997 13.7933 22.1689 12.8638C23.2907 12.554 25.7266 11.7313 26.3035 11.4749L26.7843 11.2612L26.7309 9.32749C26.6775 7.28688 26.624 7.01979 26.0151 5.67363C25.2031 3.88944 23.4937 2.3403 21.5065 1.60312C20.2672 1.14371 18.9317 0.919355 17.0941 0.87662C16.1005 0.855253 14.8505 0.865936 14.3163 0.919355Z" fill="#112D4E"/>
<path d="M2.01923 12.2549C1.34616 12.6822 0.715813 13.3553 0.320513 14.0818C0.0213675 14.6053 0 14.7335 0 15.7164C0.0106838 16.6886 0.0320513 16.8382 0.309829 17.351C1.05769 18.7079 2.62821 19.819 4.49787 20.2997C5.29915 20.5027 5.39531 20.5134 5.39531 20.3318C5.39531 20.2677 5.52351 19.9365 5.67308 19.616C6.28206 18.2805 7.60685 17.6395 10.9509 17.0305C12.1902 16.8062 12.5748 16.7848 16.5598 16.7848C20.5128 16.7848 20.9295 16.8062 22.1688 17.0305C23.6218 17.2869 24.765 17.5861 25.2885 17.8425C25.4701 17.9386 25.6624 18.0134 25.7052 18.0134C25.8975 18.0134 26.7735 18.6865 27.1368 19.1032C27.3398 19.3489 27.5748 19.7442 27.6389 19.9686L27.7671 20.3852L28.2479 20.3104C29.4552 20.1288 31.5599 18.9963 32.3718 18.0989C33.1624 17.2121 33.3227 16.8168 33.3334 15.7164C33.3334 14.8724 33.3013 14.6801 33.0235 14.1245C32.6603 13.3767 31.7522 12.4579 31.0684 12.1373C30.6411 11.9344 30.4274 11.913 29.4979 11.945C28.515 11.9771 28.2693 12.0412 26.656 12.5967C23.2479 13.7826 22.5214 13.9643 20.1496 14.2848C17.0727 14.6908 12.7457 14.4878 9.82907 13.7933C8.69659 13.5262 7.22223 13.0561 5.09616 12.2869C3.70727 11.7848 2.78847 11.7741 2.01923 12.2549Z" fill="#112D4E"/>
<path d="M12.4379 27.1209C11.6366 27.3667 11.0811 27.8368 10.0554 29.1295C9.19004 30.2192 8.67722 30.5504 7.84388 30.5504C7.35243 30.5504 7.03192 30.4757 6.50841 30.2406C6.12379 30.059 5.81396 29.9628 5.81396 30.0056C5.81396 30.0483 5.99559 30.3795 6.21995 30.7214C6.91439 31.8004 7.82251 32.4415 9.27551 32.8902C10.3866 33.2321 12.4059 33.2107 13.517 32.8475C14.3503 32.5697 15.3759 32.0034 15.846 31.5868C15.9849 31.4586 16.3054 31.0739 16.5512 30.7427C16.9785 30.1658 17.0212 30.1445 17.1815 30.3261C17.2777 30.4329 17.3524 30.5611 17.3524 30.6252C17.3524 30.8389 18.8161 32.0996 19.393 32.388C20.6324 32.997 21.2307 33.1252 22.6943 33.1252C23.8695 33.1252 24.1794 33.0825 24.8952 32.8475C25.9101 32.5163 26.4443 32.2064 27.096 31.5975C27.6302 31.0953 28.1858 30.3047 28.1217 30.1338C28.1003 30.0697 27.8866 30.1231 27.6089 30.2513C26.9465 30.5504 25.7285 30.6359 25.2905 30.4009C25.0982 30.3047 24.6495 29.888 24.2755 29.4607C22.299 27.2064 22.1281 27.0889 20.8247 27.0889C19.4892 27.0889 18.4956 27.5056 17.4806 28.4778L17.0212 28.9265L16.4657 28.3816C15.44 27.388 13.5383 26.7898 12.4379 27.1209Z" fill="#112D4E"/>
<path d="M20.6345 18.3336C19.4135 18.4783 18.2921 19.2967 17.763 20.4227C17.546 20.893 17.4419 21.3633 17.4419 21.924C17.4329 23.6197 18.5724 25.0532 20.2591 25.4783C20.6209 25.5687 21.5615 25.5551 21.9277 25.4556C22.3212 25.3471 22.8186 25.1165 23.1487 24.8814L23.42 24.6914L23.6009 24.8587C23.7998 25.0396 23.9536 25.0668 24.0666 24.9401C24.1887 24.809 24.1571 24.6553 23.9762 24.4699L23.8134 24.3025L23.9943 24.0403C24.4736 23.3529 24.659 22.7696 24.659 21.9466C24.6635 21.6165 24.6364 21.2819 24.6002 21.1372C24.139 19.3148 22.4478 18.1165 20.6345 18.3336ZM22.0951 19.0435C22.9859 19.3736 23.7004 20.1062 23.9671 20.9518C24.4917 22.643 23.5963 24.3704 21.9368 24.8678C21.4484 25.017 20.7611 25.0351 20.2998 24.9175C19.1965 24.6281 18.3599 23.7825 18.075 22.6611C17.9575 22.1908 17.9801 21.4582 18.1248 20.997C18.4413 20.0112 19.2553 19.2334 20.2637 18.9621C20.5305 18.8898 20.6978 18.8762 21.159 18.8898C21.6519 18.9033 21.7695 18.9214 22.0951 19.0435Z" fill="#112D4E" stroke="#112D4E"/>
<path d="M26.0487 26.9657L26.0487 26.9656L26.0502 26.9671C26.4339 27.3553 26.7987 27.7135 27.0765 27.9779C27.206 28.1011 27.3146 28.2021 27.3963 28.2756C27.3492 28.2218 27.2874 28.1539 27.2086 28.0698C26.9783 27.8241 26.6249 27.4638 26.1233 26.9622L24.83 25.6689L24.7863 25.6647C24.7838 25.6672 24.7814 25.6695 24.7792 25.6718C24.7792 25.6749 24.7792 25.6782 24.7792 25.6817V25.6921L26.0487 26.9657ZM27.4946 28.3956C27.4943 28.3951 27.494 28.3946 27.4936 28.394C27.4983 28.4019 27.4996 28.4029 27.4946 28.3956Z" fill="#112D4E" stroke="#112D4E"/>
<mask id="path-6-outside-1_26_8" maskUnits="userSpaceOnUse" x="45.3334" y="9.20947" width="84" height="21" fill="black">
<rect fill="white" x="45.3334" y="9.20947" width="84" height="21"/>
<path d="M46.6873 28.2095V11.2407H48.3513V18.9751H57.8435V11.2407H59.531V28.2095H57.8435V20.4517H48.3513V28.2095H46.6873ZM78.7545 19.7251C78.7545 25.0454 75.6842 28.4438 71.3951 28.4438C67.0826 28.4438 64.0123 25.0454 64.0123 19.7251C64.0123 14.4048 67.0826 11.0063 71.3951 11.0063C75.6842 11.0063 78.7545 14.4048 78.7545 19.7251ZM77.1373 19.7251C77.1373 15.2017 74.6763 12.5767 71.3951 12.5767C68.1138 12.5767 65.6529 15.2017 65.6529 19.7251C65.6529 24.2251 68.0904 26.8735 71.3951 26.8735C74.6763 26.8735 77.1373 24.2485 77.1373 19.7251ZM83.2592 11.2407H85.2045L91.2748 25.8188H91.4388L97.4857 11.2407H99.4545V28.2095H97.8607V14.686H97.7201L92.0951 28.2095H90.5951L84.9701 14.686H84.8295V28.2095H83.2592V11.2407ZM104.686 28.2095V11.2407H114.623V12.7407H106.35V18.9751H114.108V20.4517H106.35V26.7095H114.787V28.2095H104.686ZM126.136 18.647C125.854 17.4517 124.917 16.7017 123.347 16.7017C121.636 16.6782 120.464 17.6157 120.464 18.8579C120.464 19.8423 121.19 20.522 122.737 20.897L124.683 21.3657C126.839 21.9048 127.894 23.0298 127.894 24.7407C127.894 26.9204 126.136 28.4673 123.136 28.4673C120.417 28.4673 118.753 27.2251 118.425 24.9751H120.089C120.347 26.3579 121.378 27.061 123.112 27.061C125.034 27.061 126.276 26.1938 126.276 24.8345C126.276 23.8267 125.573 23.1235 124.073 22.772L122.128 22.3032C119.995 21.811 118.847 20.6157 118.847 18.9282C118.847 16.8188 120.675 15.2954 123.347 15.2954C125.854 15.3188 127.448 16.6548 127.729 18.647H126.136Z"/>
</mask>
<path d="M46.6873 28.2095V11.2407H48.3513V18.9751H57.8435V11.2407H59.531V28.2095H57.8435V20.4517H48.3513V28.2095H46.6873ZM78.7545 19.7251C78.7545 25.0454 75.6842 28.4438 71.3951 28.4438C67.0826 28.4438 64.0123 25.0454 64.0123 19.7251C64.0123 14.4048 67.0826 11.0063 71.3951 11.0063C75.6842 11.0063 78.7545 14.4048 78.7545 19.7251ZM77.1373 19.7251C77.1373 15.2017 74.6763 12.5767 71.3951 12.5767C68.1138 12.5767 65.6529 15.2017 65.6529 19.7251C65.6529 24.2251 68.0904 26.8735 71.3951 26.8735C74.6763 26.8735 77.1373 24.2485 77.1373 19.7251ZM83.2592 11.2407H85.2045L91.2748 25.8188H91.4388L97.4857 11.2407H99.4545V28.2095H97.8607V14.686H97.7201L92.0951 28.2095H90.5951L84.9701 14.686H84.8295V28.2095H83.2592V11.2407ZM104.686 28.2095V11.2407H114.623V12.7407H106.35V18.9751H114.108V20.4517H106.35V26.7095H114.787V28.2095H104.686ZM126.136 18.647C125.854 17.4517 124.917 16.7017 123.347 16.7017C121.636 16.6782 120.464 17.6157 120.464 18.8579C120.464 19.8423 121.19 20.522 122.737 20.897L124.683 21.3657C126.839 21.9048 127.894 23.0298 127.894 24.7407C127.894 26.9204 126.136 28.4673 123.136 28.4673C120.417 28.4673 118.753 27.2251 118.425 24.9751H120.089C120.347 26.3579 121.378 27.061 123.112 27.061C125.034 27.061 126.276 26.1938 126.276 24.8345C126.276 23.8267 125.573 23.1235 124.073 22.772L122.128 22.3032C119.995 21.811 118.847 20.6157 118.847 18.9282C118.847 16.8188 120.675 15.2954 123.347 15.2954C125.854 15.3188 127.448 16.6548 127.729 18.647H126.136Z" fill="#112D4E"/>
<path d="M46.6873 28.2095H45.6873V29.2095H46.6873V28.2095ZM46.6873 11.2407V10.2407H45.6873V11.2407H46.6873ZM48.3513 11.2407H49.3513V10.2407H48.3513V11.2407ZM48.3513 18.9751H47.3513V19.9751H48.3513V18.9751ZM57.8435 18.9751V19.9751H58.8435V18.9751H57.8435ZM57.8435 11.2407V10.2407H56.8435V11.2407H57.8435ZM59.531 11.2407H60.531V10.2407H59.531V11.2407ZM59.531 28.2095V29.2095H60.531V28.2095H59.531ZM57.8435 28.2095H56.8435V29.2095H57.8435V28.2095ZM57.8435 20.4517H58.8435V19.4517H57.8435V20.4517ZM48.3513 20.4517V19.4517H47.3513V20.4517H48.3513ZM48.3513 28.2095V29.2095H49.3513V28.2095H48.3513ZM47.6873 28.2095V11.2407H45.6873V28.2095H47.6873ZM46.6873 12.2407H48.3513V10.2407H46.6873V12.2407ZM47.3513 11.2407V18.9751H49.3513V11.2407H47.3513ZM48.3513 19.9751H57.8435V17.9751H48.3513V19.9751ZM58.8435 18.9751V11.2407H56.8435V18.9751H58.8435ZM57.8435 12.2407H59.531V10.2407H57.8435V12.2407ZM58.531 11.2407V28.2095H60.531V11.2407H58.531ZM59.531 27.2095H57.8435V29.2095H59.531V27.2095ZM58.8435 28.2095V20.4517H56.8435V28.2095H58.8435ZM57.8435 19.4517H48.3513V21.4517H57.8435V19.4517ZM47.3513 20.4517V28.2095H49.3513V20.4517H47.3513ZM48.3513 27.2095H46.6873V29.2095H48.3513V27.2095ZM77.7545 19.7251C77.7545 22.1967 77.0425 24.1292 75.9253 25.4272C74.8177 26.714 73.258 27.4438 71.3951 27.4438V29.4438C73.8213 29.4438 75.9413 28.4744 77.4411 26.7319C78.9313 25.0007 79.7545 22.5738 79.7545 19.7251H77.7545ZM71.3951 27.4438C69.5189 27.4438 67.9534 26.7128 66.8437 25.4264C65.7242 24.1287 65.0123 22.1967 65.0123 19.7251H63.0123C63.0123 22.5738 63.8355 25.0012 65.3293 26.7328C66.8328 28.4757 68.9588 29.4438 71.3951 29.4438V27.4438ZM65.0123 19.7251C65.0123 17.2535 65.7242 15.3215 66.8437 14.0238C67.9534 12.7374 69.5189 12.0063 71.3951 12.0063V10.0063C68.9588 10.0063 66.8328 10.9745 65.3293 12.7174C63.8355 14.449 63.0123 16.8764 63.0123 19.7251H65.0123ZM71.3951 12.0063C73.258 12.0063 74.8177 12.7362 75.9253 14.023C77.0425 15.321 77.7545 17.2535 77.7545 19.7251H79.7545C79.7545 16.8764 78.9313 14.4495 77.4411 12.7182C75.9413 10.9758 73.8213 10.0063 71.3951 10.0063V12.0063ZM78.1373 19.7251C78.1373 17.2877 77.4735 15.2543 76.2626 13.8117C75.0406 12.3558 73.3208 11.5767 71.3951 11.5767V13.5767C72.7506 13.5767 73.9019 14.1101 74.7307 15.0975C75.5706 16.0982 76.1373 17.639 76.1373 19.7251H78.1373ZM71.3951 11.5767C69.4694 11.5767 67.7496 12.3558 66.5276 13.8117C65.3167 15.2543 64.6529 17.2877 64.6529 19.7251H66.6529C66.6529 17.639 67.2196 16.0982 68.0595 15.0975C68.8883 14.1101 70.0396 13.5767 71.3951 13.5767V11.5767ZM64.6529 19.7251C64.6529 22.1495 65.3102 24.1822 66.5171 25.6277C67.7359 27.0875 69.4563 27.8735 71.3951 27.8735V25.8735C70.0292 25.8735 68.8785 25.3354 68.0524 24.3459C67.2144 23.3422 66.6529 21.8007 66.6529 19.7251H64.6529ZM71.3951 27.8735C73.3208 27.8735 75.0406 27.0944 76.2626 25.6385C77.4735 24.1959 78.1373 22.1625 78.1373 19.7251H76.1373C76.1373 21.8112 75.5706 23.352 74.7307 24.3527C73.9019 25.3401 72.7506 25.8735 71.3951 25.8735V27.8735ZM83.2592 11.2407V10.2407H82.2592V11.2407H83.2592ZM85.2045 11.2407L86.1276 10.8563L85.8713 10.2407H85.2045V11.2407ZM91.2748 25.8188L90.3516 26.2033L90.6079 26.8188H91.2748V25.8188ZM91.4388 25.8188V26.8188H92.1067L92.3625 26.202L91.4388 25.8188ZM97.4857 11.2407V10.2407H96.8179L96.562 10.8576L97.4857 11.2407ZM99.4545 11.2407H100.454V10.2407H99.4545V11.2407ZM99.4545 28.2095V29.2095H100.454V28.2095H99.4545ZM97.8607 28.2095H96.8607V29.2095H97.8607V28.2095ZM97.8607 14.686H98.8607V13.686H97.8607V14.686ZM97.7201 14.686V13.686H97.053L96.7968 14.302L97.7201 14.686ZM92.0951 28.2095V29.2095H92.7622L93.0184 28.5935L92.0951 28.2095ZM90.5951 28.2095L89.6718 28.5935L89.928 29.2095H90.5951V28.2095ZM84.9701 14.686L85.8934 14.302L85.6372 13.686H84.9701V14.686ZM84.8295 14.686V13.686H83.8295V14.686H84.8295ZM84.8295 28.2095V29.2095H85.8295V28.2095H84.8295ZM83.2592 28.2095H82.2592V29.2095H83.2592V28.2095ZM83.2592 12.2407H85.2045V10.2407H83.2592V12.2407ZM84.2813 11.6251L90.3516 26.2033L92.1979 25.4344L86.1276 10.8563L84.2813 11.6251ZM91.2748 26.8188H91.4388V24.8188H91.2748V26.8188ZM92.3625 26.202L98.4094 11.6239L96.562 10.8576L90.5152 25.4357L92.3625 26.202ZM97.4857 12.2407H99.4545V10.2407H97.4857V12.2407ZM98.4545 11.2407V28.2095H100.454V11.2407H98.4545ZM99.4545 27.2095H97.8607V29.2095H99.4545V27.2095ZM98.8607 28.2095V14.686H96.8607V28.2095H98.8607ZM97.8607 13.686H97.7201V15.686H97.8607V13.686ZM96.7968 14.302L91.1718 27.8254L93.0184 28.5935L98.6434 15.0701L96.7968 14.302ZM92.0951 27.2095H90.5951V29.2095H92.0951V27.2095ZM91.5184 27.8254L85.8934 14.302L84.0468 15.0701L89.6718 28.5935L91.5184 27.8254ZM84.9701 13.686H84.8295V15.686H84.9701V13.686ZM83.8295 14.686V28.2095H85.8295V14.686H83.8295ZM84.8295 27.2095H83.2592V29.2095H84.8295V27.2095ZM84.2592 28.2095V11.2407H82.2592V28.2095H84.2592ZM104.686 28.2095H103.686V29.2095H104.686V28.2095ZM104.686 11.2407V10.2407H103.686V11.2407H104.686ZM114.623 11.2407H115.623V10.2407H114.623V11.2407ZM114.623 12.7407V13.7407H115.623V12.7407H114.623ZM106.35 12.7407V11.7407H105.35V12.7407H106.35ZM106.35 18.9751H105.35V19.9751H106.35V18.9751ZM114.108 18.9751H115.108V17.9751H114.108V18.9751ZM114.108 20.4517V21.4517H115.108V20.4517H114.108ZM106.35 20.4517V19.4517H105.35V20.4517H106.35ZM106.35 26.7095H105.35V27.7095H106.35V26.7095ZM114.787 26.7095H115.787V25.7095H114.787V26.7095ZM114.787 28.2095V29.2095H115.787V28.2095H114.787ZM105.686 28.2095V11.2407H103.686V28.2095H105.686ZM104.686 12.2407H114.623V10.2407H104.686V12.2407ZM113.623 11.2407V12.7407H115.623V11.2407H113.623ZM114.623 11.7407H106.35V13.7407H114.623V11.7407ZM105.35 12.7407V18.9751H107.35V12.7407H105.35ZM106.35 19.9751H114.108V17.9751H106.35V19.9751ZM113.108 18.9751V20.4517H115.108V18.9751H113.108ZM114.108 19.4517H106.35V21.4517H114.108V19.4517ZM105.35 20.4517V26.7095H107.35V20.4517H105.35ZM106.35 27.7095H114.787V25.7095H106.35V27.7095ZM113.787 26.7095V28.2095H115.787V26.7095H113.787ZM114.787 27.2095H104.686V29.2095H114.787V27.2095ZM126.136 18.647L125.162 18.876L125.344 19.647H126.136V18.647ZM123.347 16.7017L123.333 17.7017H123.347V16.7017ZM122.737 20.897L122.502 21.8688L122.503 21.8691L122.737 20.897ZM124.683 21.3657L124.925 20.3955L124.917 20.3935L124.683 21.3657ZM118.425 24.9751V23.9751H117.268L117.435 25.1194L118.425 24.9751ZM120.089 24.9751L121.072 24.7918L120.92 23.9751H120.089V24.9751ZM124.073 22.772L123.839 23.7442L123.845 23.7456L124.073 22.772ZM122.128 22.3032L122.362 21.331L122.353 21.3288L122.128 22.3032ZM123.347 15.2954L123.356 14.2954H123.347V15.2954ZM127.729 18.647V19.647H128.881L128.72 18.5072L127.729 18.647ZM127.109 18.4179C126.92 17.6152 126.494 16.9101 125.811 16.4158C125.136 15.9275 124.289 15.7017 123.347 15.7017V17.7017C123.975 17.7017 124.382 17.8508 124.639 18.0364C124.887 18.2159 125.07 18.4834 125.162 18.876L127.109 18.4179ZM123.36 15.7018C121.347 15.6742 119.464 16.833 119.464 18.8579H121.464C121.464 18.3984 121.925 17.6823 123.333 17.7016L123.36 15.7018ZM119.464 18.8579C119.464 19.6328 119.765 20.3178 120.349 20.8469C120.897 21.344 121.647 21.6616 122.502 21.8688L122.973 19.9251C122.281 19.7574 121.894 19.5476 121.692 19.365C121.526 19.2144 121.464 19.0674 121.464 18.8579H119.464ZM122.503 21.8691L124.448 22.3379L124.917 20.3935L122.972 19.9248L122.503 21.8691ZM124.44 22.3359C125.408 22.578 126.013 22.9244 126.371 23.3017C126.707 23.6567 126.894 24.1096 126.894 24.7407H128.894C128.894 23.6609 128.552 22.6958 127.822 21.9258C127.114 21.1782 126.113 20.6925 124.925 20.3956L124.44 22.3359ZM126.894 24.7407C126.894 25.5389 126.583 26.1811 126.011 26.6441C125.419 27.1225 124.473 27.4673 123.136 27.4673V29.4673C124.799 29.4673 126.231 29.0386 127.269 28.1987C128.326 27.3433 128.894 26.1222 128.894 24.7407H126.894ZM123.136 27.4673C121.92 27.4673 121.055 27.1891 120.48 26.7621C119.924 26.3489 119.545 25.728 119.414 24.8308L117.435 25.1194C117.633 26.4722 118.25 27.5974 119.288 28.3678C120.306 29.1244 121.633 29.4673 123.136 29.4673V27.4673ZM118.425 25.9751H120.089V23.9751H118.425V25.9751ZM119.106 25.1584C119.276 26.0732 119.726 26.8419 120.48 27.3605C121.209 27.8619 122.122 28.061 123.112 28.061V26.061C122.368 26.061 121.898 25.9086 121.614 25.7127C121.354 25.5341 121.159 25.2598 121.072 24.7918L119.106 25.1584ZM123.112 28.061C124.208 28.061 125.221 27.8157 125.99 27.2759C126.79 26.7142 127.276 25.8607 127.276 24.8345H125.276C125.276 25.1676 125.142 25.4274 124.84 25.6391C124.508 25.8728 123.938 26.061 123.112 26.061V28.061ZM127.276 24.8345C127.276 24.0686 126.997 23.3752 126.427 22.8327C125.887 22.3188 125.146 21.9963 124.301 21.7984L123.845 23.7456C124.5 23.8992 124.861 24.1041 125.048 24.2815C125.204 24.4305 125.276 24.5925 125.276 24.8345H127.276ZM124.307 21.7998L122.362 21.331L121.894 23.2754L123.839 23.7441L124.307 21.7998ZM122.353 21.3288C121.412 21.1118 120.787 20.7613 120.406 20.368C120.041 19.9923 119.847 19.525 119.847 18.9282H117.847C117.847 20.019 118.226 20.9931 118.969 21.7599C119.696 22.5092 120.711 23.0025 121.903 23.2776L122.353 21.3288ZM119.847 18.9282C119.847 17.5528 121.026 16.2954 123.347 16.2954V14.2954C120.324 14.2954 117.847 16.0849 117.847 18.9282H119.847ZM123.337 16.2954C124.418 16.3055 125.216 16.5963 125.756 17.0198C126.288 17.4369 126.633 18.0309 126.739 18.7868L128.72 18.5072C128.545 17.2708 127.952 16.2008 126.99 15.4461C126.036 14.6976 124.784 14.3088 123.356 14.2955L123.337 16.2954ZM127.729 17.647H126.136V19.647H127.729V17.647Z" fill="#112D4E" mask="url(#path-6-outside-1_26_8)"/>
<path d="M44 11.0581L53 4.05811L62 11.0581" stroke="#112D4E" stroke-width="3" stroke-linecap="round" stroke-linejoin="round"/>
</svg>
